<svg width="35" height="30" viewBox="0 0 35 30" fill="none" xmlns="http://www.w3.org/2000/svg">
<g clip-path="url(#clip0_105_80)">
<path d="M2.75007 17.4551C2.88715 17.4785 3.02573 17.4887 3.16506 17.4872L26.7997 17.4872L26.2843 17.7374C25.7809 17.9862 25.3225 18.3248 24.93 18.7386L18.302 25.659C17.4293 26.5288 17.2825 27.9288 17.9544 28.9753C18.7365 30.0907 20.2361 30.3323 21.3043 29.5158C21.3905 29.4501 21.4729 29.3781 21.55 29.3007L33.5355 16.7864C34.4719 15.8095 34.4727 14.2248 33.537 13.2464L33.5355 13.2448L21.5501 0.730454C20.6129 -0.245664 19.0945 -0.243318 18.1597 0.735146C18.0862 0.811797 18.0173 0.893923 17.9544 0.980742C17.2825 2.02725 17.4293 3.42729 18.302 4.29704L24.918 11.23C25.2693 11.5976 25.6738 11.9058 26.1165 12.1435L26.8357 12.4814L3.29615 12.4814C2.07139 12.4337 0.99719 13.3269 0.767217 14.5838C0.555223 15.9487 1.4429 17.2337 2.74932 17.4551L2.75007 17.4551Z" fill="white"/>
</g>
<defs>
<clipPath id="clip0_105_80">
<rect width="33.5024" height="30" fill="white" transform="translate(34.239 30) rotate(-180)"/>
</clipPath>
</defs>
</svg>
