<svg width="25" height="19" viewBox="0 0 25 19" fill="none" xmlns="http://www.w3.org/2000/svg">
<path d="M3.83625 1.57503C5.42951 0.846205 7.1385 0.309204 8.92512 0.00151212C8.95783 -0.00433014 8.99006 0.0102755 9.00666 0.0399737C9.22639 0.429944 9.47004 0.938221 9.64045 1.33793C11.5618 1.05117 13.4739 1.05117 15.3558 1.33793C15.5262 0.929458 15.7786 0.429944 15.9993 0.0404605C16.0159 0.0117361 16.0487 -0.00286957 16.0814 0.00199898C17.867 0.308718 19.5755 0.845719 21.1702 1.57551C21.1839 1.58136 21.1961 1.59109 21.2039 1.60424C24.4442 6.43141 25.3319 11.1408 24.8963 15.7917C24.8944 15.8146 24.8817 15.836 24.8636 15.8501C22.7254 17.4158 20.6541 18.3662 18.6209 18.9966C18.5882 19.0064 18.554 18.9947 18.533 18.9679C18.0521 18.3131 17.6234 17.6227 17.2562 16.8968C17.2347 16.8545 17.2552 16.8038 17.2996 16.7868C17.9798 16.5297 18.6268 16.2162 19.2498 15.8598C19.2991 15.8311 19.303 15.761 19.2576 15.7274C19.1268 15.6296 18.9954 15.5278 18.8704 15.4246C18.848 15.4056 18.8162 15.4017 18.7899 15.4139C14.6986 17.2766 10.2689 17.2766 6.2259 15.4139C6.19905 15.4012 6.1678 15.4051 6.14436 15.4236C6.01936 15.5263 5.88801 15.6296 5.75617 15.7274C5.71076 15.761 5.71369 15.8311 5.76301 15.8598C6.38606 16.223 7.03303 16.5293 7.71418 16.7858C7.75862 16.8029 7.77814 16.854 7.75666 16.8964C7.38117 17.6213 6.95246 18.3116 6.48078 18.9665C6.46125 18.9942 6.42561 19.0059 6.39289 18.9962C4.35041 18.3662 2.27864 17.4153 0.140451 15.8496C0.121897 15.836 0.10969 15.815 0.107737 15.7922C-0.413748 10.4153 0.980783 5.74445 3.80403 1.60424C3.81086 1.59061 3.82258 1.58038 3.83625 1.57454V1.57503ZM16.6458 12.9596C17.8778 12.9596 18.8924 11.8321 18.8924 10.4475C18.8924 9.06286 17.8973 7.9353 16.6458 7.9353C15.3944 7.9353 14.3792 9.07259 14.3992 10.4475C14.3992 11.8321 15.3944 12.9596 16.6458 12.9596ZM8.33869 12.9596C9.57063 12.9596 10.5853 11.8321 10.5853 10.4475C10.5853 9.06286 9.59016 7.9353 8.33869 7.9353C7.08723 7.9353 6.07209 9.07259 6.09211 10.4475C6.09211 11.8321 7.07746 12.9596 8.33869 12.9596Z" fill="white"/>
</svg>
