<svg width="22" height="24" viewBox="0 0 22 24" fill="none" xmlns="http://www.w3.org/2000/svg">
<g clip-path="url(#clip0_105_789)">
<path d="M21.1066 21.8599L15.9696 15.92C17.2917 14.1759 18.0153 11.9768 18.0153 9.68931C18.0153 4.34755 14.1057 0 9.30205 0C4.49838 0 0.588776 4.34755 0.588776 9.68931C0.588776 15.0311 4.49838 19.3786 9.30205 19.3786C11.1053 19.3786 12.8252 18.772 14.2951 17.6261L19.4701 23.6124C19.686 23.861 19.9777 24 20.2884 24C20.5839 24 20.8642 23.8736 21.0763 23.6461C21.5272 23.1617 21.5423 22.3612 21.1066 21.8599ZM9.30205 2.52765C12.8518 2.52765 15.7423 5.74197 15.7423 9.68931C15.7423 13.6367 12.8518 16.851 9.30205 16.851C5.75234 16.851 2.8618 13.6367 2.8618 9.68931C2.8618 5.74197 5.75234 2.52765 9.30205 2.52765Z" fill="#428BB4"/>
</g>
<defs>
<clipPath id="clip0_105_789">
<rect width="20.8361" height="24" fill="white" transform="translate(0.588776)"/>
</clipPath>
</defs>
</svg>
