<svg width="35" height="30" viewBox="0 0 35 30" fill="none" xmlns="http://www.w3.org/2000/svg">
<g clip-path="url(#clip0_105_76)">
<path d="M32.2402 12.5449C32.1031 12.5214 31.9646 12.5113 31.8252 12.5128H8.1906L8.70598 12.2626C9.20937 12.0138 9.66781 11.6752 10.0603 11.2614L16.6883 4.34098C17.561 3.47123 17.7078 2.07119 17.0359 1.02468C16.2538 -0.0906597 14.7542 -0.332343 13.6859 0.484218C13.5998 0.549918 13.5174 0.621875 13.4402 0.699308L1.45476 13.2136C0.518391 14.1905 0.517642 15.7752 1.45326 16.7536L1.45476 16.7552L13.4402 29.2695C14.3774 30.2457 15.8958 30.2433 16.8306 29.2649C16.9041 29.1882 16.973 29.1061 17.0359 29.0193C17.7078 27.9727 17.561 26.5727 16.6883 25.703L10.0723 18.77C9.721 18.4024 9.31649 18.0942 8.87377 17.8565L8.15465 17.5186H31.6941C32.9189 17.5663 33.9931 16.6731 34.2231 15.4162C34.4351 14.0513 33.5474 12.7663 32.241 12.5449H32.2402Z" fill="white"/>
</g>
<defs>
<clipPath id="clip0_105_76">
<rect width="33.5024" height="30" fill="white" transform="translate(0.751221)"/>
</clipPath>
</defs>
</svg>
