<svg width="48" height="34" viewBox="0 0 48 34" fill="none" xmlns="http://www.w3.org/2000/svg">
<g clip-path="url(#clip0_106_418)">
<path d="M48 1.7C48 2.72 47.3143 3.4 46.2857 3.4H1.71429C0.685714 3.4 0 2.72 0 1.7C0 0.68 0.685714 0 1.71429 0H46.2857C47.3143 0 48 0.68 48 1.7ZM39.4286 15.3H1.71429C0.685714 15.3 0 15.98 0 17C0 18.02 0.685714 18.7 1.71429 18.7H39.4286C40.4571 18.7 41.1429 18.02 41.1429 17C41.1429 15.98 40.4571 15.3 39.4286 15.3ZM24 30.6H1.71429C0.685714 30.6 0 31.28 0 32.3C0 33.32 0.685714 34 1.71429 34H24C25.0286 34 25.7143 33.32 25.7143 32.3C25.7143 31.28 25.0286 30.6 24 30.6Z" fill="#428AB4"/>
</g>
<defs>
<clipPath id="clip0_106_418">
<rect width="48" height="34" fill="white"/>
</clipPath>
</defs>
</svg>
